<?xml version="1.0" encoding="UTF-8" standalone="no"?>
<!-- Created with Inkscape (http://www.inkscape.org/) -->

<svg
   width="210mm"
   height="297mm"
   viewBox="0 0 210 297"
   version="1.1"
   id="svg5"
   xmlns="http://www.w3.org/2000/svg"
   xmlns:svg="http://www.w3.org/2000/svg">
  <defs
     id="defs2">
    <rect
       x="92.394126"
       y="238.56991"
       width="580.56608"
       height="393.01979"
       id="rect1585" />
    <rect
       x="194.44137"
       y="168.24005"
       width="353.0283"
       height="384.74569"
       id="rect1127" />
    <rect
       x="421.97914"
       y="336.4801"
       width="270.2873"
       height="279.94041"
       id="rect1066" />
    <rect
       x="115.83741"
       y="244.08598"
       width="213.74761"
       height="95.15216"
       id="rect1060" />
    <rect
       x="119.97446"
       y="234.43286"
       width="354.40732"
       height="114.45839"
       id="rect325" />
    <rect
       x="645.37987"
       y="508.8572"
       width="490.92999"
       height="293.73058"
       id="rect319" />
    <rect
       x="471.62375"
       y="197.1994"
       width="532.30049"
       height="27.580336"
       id="rect313" />
    <rect
       x="155.8289"
       y="176.51415"
       width="148.93382"
       height="77.224941"
       id="rect307" />
    <rect
       x="157.20792"
       y="168.24005"
       width="503.34114"
       height="195.82039"
       id="rect251" />
    <meshgradient
       id="meshgradient1289"
       gradientUnits="userSpaceOnUse"
       x="70.889246"
       y="163.49414">
      <meshrow
         id="meshrow1571">
        <meshpatch
           id="meshpatch1573">
          <stop
             path="c 47.6484,-1.01038e-05  93.8366,-129.162  141.485,-129.162"
             style="stop-color:#ffffff;stop-opacity:1"
             id="stop1575" />
          <stop
             path="c 0,5.31738  0,10.6348  0,15.9521"
             style="stop-color:#000000;stop-opacity:1"
             id="stop1577" />
          <stop
             path="c -47.6484,0  -95.2969,0  -142.945,0"
             style="stop-color:#ffffff;stop-opacity:1"
             id="stop1579" />
          <stop
             path="c 0,-5.31738  1.45926,118.528  1.46,113.21"
             style="stop-color:#000000;stop-opacity:1"
             id="stop1581" />
        </meshpatch>
      </meshrow>
    </meshgradient>
  </defs>
  <g
     id="layer1">
    <text
       xml:space="preserve"
       transform="scale(0.26458333)"
       id="text305"
       style="white-space:pre;shape-inside:url(#rect307);display:inline;fill:#000000;fill-opacity:0" />
    <text
       xml:space="preserve"
       transform="scale(0.26458333)"
       id="text311"
       style="white-space:pre;shape-inside:url(#rect313);display:inline;fill:#000000;fill-opacity:0" />
    <text
       xml:space="preserve"
       transform="scale(0.26458333)"
       id="text317"
       style="white-space:pre;shape-inside:url(#rect319);display:inline;fill:#000000;fill-opacity:0" />
    <text
       xml:space="preserve"
       transform="scale(0.26458333)"
       id="text1058"
       style="white-space:pre;shape-inside:url(#rect1060);display:inline;fill:#000000;fill-opacity:0" />
    <text
       xml:space="preserve"
       style="font-style:normal;font-variant:normal;font-weight:normal;font-stretch:normal;font-size:18px;line-height:0;font-family:'Bodoni Bk BT';-inkscape-font-specification:'Bodoni Bk BT';fill:url(#meshgradient1289);fill-opacity:1;stroke-width:0.264583"
       x="69.324318"
       y="46.337841"
       id="text1164"><tspan
         style="font-style:normal;font-variant:normal;font-weight:normal;font-stretch:normal;font-size:18px;font-family:'Bodoni Bk BT';-inkscape-font-specification:'Bodoni Bk BT';fill:url(#meshgradient1289);fill-opacity:1;stroke-width:0.264583"
         x="69.324318"
         y="46.337841"
         id="tspan1166" /></text>
    <g
       aria-label="Marroos"
       transform="matrix(0.26458333,0,0,0.26458333,25.905405,-8.3918921)"
       id="text1583"
       style="font-size:136.063px;font-family:'Bodoni Bk BT';-inkscape-font-specification:'Bodoni Bk BT';white-space:pre;shape-inside:url(#rect1585);display:inline">
      <path
         d="m 233.241,272.85181 q 0.46506,0.39862 0.46506,0.93012 0,1.32874 -2.12599,1.32874 -0.39862,0 -1.2623,-0.13287 -0.79724,-0.13288 -1.2623,-0.13288 -3.12254,0 -6.31152,6.11221 -12.95522,25.11319 -16.875,62.51723 1.52805,-2.85679 4.05266,-7.64026 0.73081,-1.46161 1.7938,-1.46161 1.2623,0 1.2623,1.66092 0,0.79725 -0.46506,1.86024 -2.92323,6.90945 -5.3814,19.86466 -0.59793,2.8568 -2.59104,2.8568 -2.25886,0 -6.84301,-3.45473 -2.19242,-1.66092 -2.52461,-2.65748 -0.39862,-0.93012 0.0664,-3.85335 2.39173,-14.41683 6.17864,-32.4877 4.38484,-20.66191 6.37795,-24.38238 -6.97588,8.23819 -17.14075,24.18307 -9.96555,15.67914 -17.40649,29.83022 1.32874,4.1191 1.32874,6.17864 0,2.59105 -4.38485,6.64371 -2.25885,2.12598 -2.98966,2.12598 -0.73081,0 -3.91979,-5.31496 -1.39517,-2.25886 -1.39517,-3.5876 0,-0.93012 1.92667,-4.51772 -4.25197,-15.81201 -15.47982,-38.53346 -7.1752,18.07086 -14.54971,32.95275 4.78347,5.3814 4.78347,7.24164 0,1.46161 -3.32186,1.86024 -6.97588,0.79724 -11.69291,7.17519 -0.39862,2.05955 -1.99311,2.05955 -2.25886,0 -6.97589,-4.05266 -1.46161,-1.2623 -1.46161,-2.05954 0,-0.73081 1.19587,-1.7938 4.45128,-3.85335 10.16486,-7.44095 12.35728,-20.52904 20.13041,-43.18406 -8.10531,-17.80512 -20.13041,-24.84744 -1.99311,-1.19587 -3.78691,-1.19587 -2.52461,0 -5.31496,2.59105 -2.59105,2.79035 -5.18209,5.64714 -1.46161,1.66093 -2.98966,1.66093 -1.19587,0 -1.19587,-1.19587 0,-0.59793 0.39862,-1.39518 8.969,-18.00443 17.14075,-17.67224 9.6998,0.33218 25.17963,24.0502 3.78691,-8.63681 3.78691,-15.6127 0,-3.5876 1.06299,-3.5876 0.99656,0 4.65059,2.85679 1.06299,0.86368 0.99656,3.5876 -0.13288,3.45473 -6.17865,20.13042 11.69292,22.72145 17.73869,41.45669 23.45226,-38.93209 42.1875,-60.78987 2.3253,-5.31496 5.71358,-10.49704 1.46162,-2.25886 3.52117,-2.25886 3.12254,0 11.02854,6.37795 z"
         style="font-family:Pristina;-inkscape-font-specification:Pristina"
         id="path10290" />
      <path
         d="m 268.18687,314.70713 q -6.11221,16.94144 -8.43751,28.43504 0.99656,-0.93012 2.59105,-2.85679 1.66092,-1.92667 2.05955,-2.25886 0.93011,-1.19586 1.99311,-1.19586 0.99655,0 0.99655,0.99655 0,0.59793 -0.53149,1.39518 -6.24508,9.23474 -8.30463,18.6688 -0.59793,2.65748 -1.7938,2.65748 -1.12943,0 -4.18553,-2.12599 -1.7938,-1.19586 -2.05955,-1.99311 -0.33219,-0.7308 0,-2.92322 2.79035,-16.87501 6.97589,-28.03642 -5.78002,9.36761 -15.74558,20.72834 -8.70324,9.89912 -12.55659,12.62304 -2.79036,1.92667 -4.25197,1.92667 -1.19587,0 -3.65404,-1.92667 -3.52116,-2.12599 -3.52116,-5.84646 0,-0.73081 0.13288,-1.66093 1.19586,-9.83267 8.63681,-22.85433 7.44094,-13.08809 17.07431,-22.05709 3.12254,-2.92323 5.58071,-2.85679 2.39173,0.13288 9.10187,6.31152 0.59793,0.53149 0.59793,1.12943 0,1.06299 -1.39517,1.06299 -0.5315,0 -0.99656,-0.19931 -4.71703,-1.99311 -7.57382,0.13287 -6.24508,4.58416 -13.8189,16.1442 -8.76968,13.2874 -10.56348,23.91732 -0.0664,0.46506 -0.0664,0.86368 0,1.66093 1.32874,1.66093 2.25886,0 5.3814,-3.12254 7.44094,-7.24164 15.94488,-18.20374 8.70325,-11.36073 11.16142,-17.14075 1.7938,-4.25197 2.3253,-5.97933 0.86368,-2.98967 1.86023,-2.98967 0.99656,0 4.65059,2.72392 1.52805,1.12943 1.66093,2.05955 0.13287,0.79724 -0.59793,2.79035 z"
         style="font-family:Pristina;-inkscape-font-specification:Pristina"
         id="path10292" />
      <path
         d="m 316.81875,308.99355 q 0,8.70325 -2.32529,16.60925 -0.73081,2.39173 -1.99311,2.39173 -0.93012,0 -4.1191,-2.65748 -1.59449,-1.32874 -0.79724,-3.78691 1.86024,-6.04577 1.86024,-9.6998 0,-1.2623 -0.5315,-1.2623 -0.79724,0 -2.59104,2.39173 -13.8189,18.00443 -20.66192,40.3937 -2.19242,7.10876 -3.72047,7.10876 -0.59793,0 -5.24852,-2.32529 -2.25886,-1.12943 -1.52805,-4.38485 5.24852,-22.9872 11.29429,-38.79921 -4.91634,5.18209 -6.24508,7.10876 -0.5315,0.79724 -1.46161,0.79724 -1.12943,0 -1.12943,-0.99655 0,-0.59794 0.53149,-1.32874 3.25542,-3.91979 8.70325,-11.95867 1.66093,-2.92322 3.32185,-2.92322 1.19587,0 4.8499,1.86023 2.05955,1.06299 0.66437,2.85679 -1.46161,1.92668 -5.51427,13.61959 -3.85335,11.36073 -5.31496,17.80512 9.03543,-20.13041 20.52904,-35.5438 2.19242,-2.92323 3.52116,-2.92323 1.19587,0 3.25541,1.59449 2.79036,0.33218 3.52116,0.86368 1.12943,0.79724 1.12943,3.18898 z"
         style="font-family:Pristina;-inkscape-font-specification:Pristina"
         id="path10294" />
      <path
         d="m 359.53776,308.99355 q 0,8.70325 -2.32529,16.60925 -0.73081,2.39173 -1.99311,2.39173 -0.93012,0 -4.1191,-2.65748 -1.59449,-1.32874 -0.79724,-3.78691 1.86023,-6.04577 1.86023,-9.6998 0,-1.2623 -0.53149,-1.2623 -0.79725,0 -2.59104,2.39173 -13.8189,18.00443 -20.66192,40.3937 -2.19242,7.10876 -3.72047,7.10876 -0.59793,0 -5.24852,-2.32529 -2.25886,-1.12943 -1.52805,-4.38485 5.24852,-22.9872 11.29429,-38.79921 -4.91634,5.18209 -6.24508,7.10876 -0.5315,0.79724 -1.46162,0.79724 -1.12942,0 -1.12942,-0.99655 0,-0.59794 0.53149,-1.32874 3.25542,-3.91979 8.70325,-11.95867 1.66093,-2.92322 3.32185,-2.92322 1.19587,0 4.8499,1.86023 2.05955,1.06299 0.66437,2.85679 -1.46161,1.92668 -5.51427,13.61959 -3.85335,11.36073 -5.31496,17.80512 9.03543,-20.13041 20.52904,-35.5438 2.19242,-2.92323 3.52116,-2.92323 1.19587,0 3.25541,1.59449 2.79036,0.33218 3.52116,0.86368 1.12943,0.79724 1.12943,3.18898 z"
         style="font-family:Pristina;-inkscape-font-specification:Pristina"
         id="path10296" />
      <path
         d="m 402.92113,316.89955 q -0.13288,5.9129 -2.85679,15.67914 -4.31841,15.41338 -12.22441,23.91732 -4.18554,4.51772 -9.30119,4.51772 -1.99311,0 -5.11565,-0.86368 -6.24508,-0.39862 -10.16486,-3.91979 -4.25197,-3.85334 -3.98622,-9.89911 0.26575,-7.04233 4.8499,-19.66536 5.04921,-13.75246 10.49705,-19.79823 2.59104,-2.92323 4.25197,-2.92323 2.25886,0 7.30807,4.65059 1.39518,-0.66437 5.71358,-2.45816 2.19242,-0.73081 3.32185,-0.73081 2.59105,0 5.78002,4.8499 2.05955,2.98967 1.92668,6.6437 z m -7.64026,1.92667 q 0.46506,-4.45128 0.46506,-5.64714 0,-2.79036 -1.72736,-2.79036 -0.66437,0 -1.72736,0.26575 L 381.99347,314.84 q -1.7938,0.73081 -2.05955,0.73081 -0.5315,0 -1.06299,-1.2623 -3.85335,4.71703 -7.1752,13.61959 -2.59104,6.97588 -3.5876,12.49015 -0.7308,3.72048 -0.7308,6.77658 0,10.2313 6.31151,9.96555 2.52461,-0.0664 5.44784,-1.99311 5.58071,-3.78691 10.43061,-15.14764 4.65059,-10.69636 5.71358,-21.19341 z"
         style="font-family:Pristina;-inkscape-font-specification:Pristina"
         id="path10298" />
      <path
         d="m 450.29073,316.89955 q -0.13288,5.9129 -2.8568,15.67914 -4.3184,15.41338 -12.22441,23.91732 -4.18553,4.51772 -9.30118,4.51772 -1.99311,0 -5.11565,-0.86368 -6.24508,-0.39862 -10.16486,-3.91979 -4.25197,-3.85334 -3.98622,-9.89911 0.26575,-7.04233 4.8499,-19.66536 5.04921,-13.75246 10.49705,-19.79823 2.59104,-2.92323 4.25197,-2.92323 2.25886,0 7.30807,4.65059 1.39518,-0.66437 5.71358,-2.45816 2.19242,-0.73081 3.32185,-0.73081 2.59105,0 5.78002,4.8499 2.05955,2.98967 1.92668,6.6437 z m -7.64026,1.92667 q 0.46506,-4.45128 0.46506,-5.64714 0,-2.79036 -1.72736,-2.79036 -0.66437,0 -1.72737,0.26575 L 429.36307,314.84 q -1.7938,0.73081 -2.05955,0.73081 -0.5315,0 -1.06299,-1.2623 -3.85335,4.71703 -7.1752,13.61959 -2.59104,6.97588 -3.5876,12.49015 -0.73081,3.72048 -0.73081,6.77658 0,10.2313 6.31152,9.96555 2.52461,-0.0664 5.44784,-1.99311 5.5807,-3.78691 10.43061,-15.14764 4.65059,-10.69636 5.71358,-21.19341 z"
         style="font-family:Pristina;-inkscape-font-specification:Pristina"
         id="path10300" />
      <path
         d="m 486.49888,305.73813 q 0,2.98967 -1.59449,9.56693 -0.59794,2.25886 -1.32874,2.92323 -0.33219,0.33219 -2.25886,0.99656 -2.45817,0.93012 -3.0561,0.93012 -0.99656,0 -0.99656,-1.32875 0,-0.7308 0.26575,-1.92667 1.59449,-6.57726 1.19587,-9.10187 -0.33219,-2.59104 1.52805,-3.25541 3.25541,-1.66093 4.18553,-1.66093 2.05955,0 2.05955,2.85679 z m -10.62993,38.13485 q 0.19931,7.97244 -8.83612,10.89567 -1.12943,2.79035 -2.12598,3.85335 -1.52806,1.59448 -4.51772,1.86023 -1.92667,0.13288 -4.1191,-0.19931 -3.91978,-0.59793 -9.63336,-1.46161 -1.59449,-0.26575 -1.92668,-1.92668 0.26575,-1.7938 3.72048,-2.12598 4.71702,-0.33219 13.95177,-1.66093 3.45472,-0.79724 4.91634,-3.91978 0.86368,-1.59449 0.86368,-3.91978 0,-4.18554 -4.18553,-14.74902 -4.1191,-10.29774 -3.85335,-13.75246 0.5315,-8.30463 15.34695,-11.56004 1.46162,-0.33219 1.46162,1.06299 0,0.79724 -1.063,1.2623 -7.17519,3.12254 -7.17519,7.7067 0,1.7938 0.66437,4.51771 0.66437,2.65748 3.98622,12.88878 2.45817,7.37451 2.5246,11.22786 z"
         style="font-family:Pristina;-inkscape-font-specification:Pristina"
         id="path10302" />
    </g>
  </g>
  <script
     id="mesh_polyfill"
     type="text/javascript">
!function(){const t=&quot;http://www.w3.org/2000/svg&quot;,e=&quot;http://www.w3.org/1999/xlink&quot;,s=&quot;http://www.w3.org/1999/xhtml&quot;,r=2;if(document.createElementNS(t,&quot;meshgradient&quot;).x)return;const n=(t,e,s,r)=&gt;{let n=new x(.5*(e.x+s.x),.5*(e.y+s.y)),o=new x(.5*(t.x+e.x),.5*(t.y+e.y)),i=new x(.5*(s.x+r.x),.5*(s.y+r.y)),a=new x(.5*(n.x+o.x),.5*(n.y+o.y)),h=new x(.5*(n.x+i.x),.5*(n.y+i.y)),l=new x(.5*(a.x+h.x),.5*(a.y+h.y));return[[t,o,a,l],[l,h,i,r]]},o=t=&gt;{let e=t[0].distSquared(t[1]),s=t[2].distSquared(t[3]),r=.25*t[0].distSquared(t[2]),n=.25*t[1].distSquared(t[3]),o=e&gt;s?e:s,i=r&gt;n?r:n;return 18*(o&gt;i?o:i)},i=(t,e)=&gt;Math.sqrt(t.distSquared(e)),a=(t,e)=&gt;t.scale(2/3).add(e.scale(1/3)),h=t=&gt;{let e,s,r,n,o,i,a,h=new g;return t.match(/(\w+\(\s*[^)]+\))+/g).forEach(t=&gt;{let l=t.match(/[\w.-]+/g),d=l.shift();switch(d){case&quot;translate&quot;:2===l.length?e=new g(1,0,0,1,l[0],l[1]):(console.error(&quot;mesh.js: translate does not have 2 arguments!&quot;),e=new g(1,0,0,1,0,0)),h=h.append(e);break;case&quot;scale&quot;:1===l.length?s=new g(l[0],0,0,l[0],0,0):2===l.length?s=new g(l[0],0,0,l[1],0,0):(console.error(&quot;mesh.js: scale does not have 1 or 2 arguments!&quot;),s=new g(1,0,0,1,0,0)),h=h.append(s);break;case&quot;rotate&quot;:if(3===l.length&amp;&amp;(e=new g(1,0,0,1,l[1],l[2]),h=h.append(e)),l[0]){r=l[0]*Math.PI/180;let t=Math.cos(r),e=Math.sin(r);Math.abs(t)&lt;1e-16&amp;&amp;(t=0),Math.abs(e)&lt;1e-16&amp;&amp;(e=0),a=new g(t,e,-e,t,0,0),h=h.append(a)}else console.error(&quot;math.js: No argument to rotate transform!&quot;);3===l.length&amp;&amp;(e=new g(1,0,0,1,-l[1],-l[2]),h=h.append(e));break;case&quot;skewX&quot;:l[0]?(r=l[0]*Math.PI/180,n=Math.tan(r),o=new g(1,0,n,1,0,0),h=h.append(o)):console.error(&quot;math.js: No argument to skewX transform!&quot;);break;case&quot;skewY&quot;:l[0]?(r=l[0]*Math.PI/180,n=Math.tan(r),i=new g(1,n,0,1,0,0),h=h.append(i)):console.error(&quot;math.js: No argument to skewY transform!&quot;);break;case&quot;matrix&quot;:6===l.length?h=h.append(new g(...l)):console.error(&quot;math.js: Incorrect number of arguments for matrix!&quot;);break;default:console.error(&quot;mesh.js: Unhandled transform type: &quot;+d)}}),h},l=t=&gt;{let e=[],s=t.split(/[ ,]+/);for(let t=0,r=s.length-1;t&lt;r;t+=2)e.push(new x(parseFloat(s[t]),parseFloat(s[t+1])));return e},d=(t,e)=&gt;{for(let s in e)t.setAttribute(s,e[s])},c=(t,e,s,r,n)=&gt;{let o,i,a=[0,0,0,0];for(let h=0;h&lt;3;++h)e[h]&lt;t[h]&amp;&amp;e[h]&lt;s[h]||t[h]&lt;e[h]&amp;&amp;s[h]&lt;e[h]?a[h]=0:(a[h]=.5*((e[h]-t[h])/r+(s[h]-e[h])/n),o=Math.abs(3*(e[h]-t[h])/r),i=Math.abs(3*(s[h]-e[h])/n),a[h]&gt;o?a[h]=o:a[h]&gt;i&amp;&amp;(a[h]=i));return a},u=[[1,0,0,0,0,0,0,0,0,0,0,0,0,0,0,0],[0,0,0,0,1,0,0,0,0,0,0,0,0,0,0,0],[-3,3,0,0,-2,-1,0,0,0,0,0,0,0,0,0,0],[2,-2,0,0,1,1,0,0,0,0,0,0,0,0,0,0],[0,0,0,0,0,0,0,0,1,0,0,0,0,0,0,0],[0,0,0,0,0,0,0,0,0,0,0,0,1,0,0,0],[0,0,0,0,0,0,0,0,-3,3,0,0,-2,-1,0,0],[0,0,0,0,0,0,0,0,2,-2,0,0,1,1,0,0],[-3,0,3,0,0,0,0,0,-2,0,-1,0,0,0,0,0],[0,0,0,0,-3,0,3,0,0,0,0,0,-2,0,-1,0],[9,-9,-9,9,6,3,-6,-3,6,-6,3,-3,4,2,2,1],[-6,6,6,-6,-3,-3,3,3,-4,4,-2,2,-2,-2,-1,-1],[2,0,-2,0,0,0,0,0,1,0,1,0,0,0,0,0],[0,0,0,0,2,0,-2,0,0,0,0,0,1,0,1,0],[-6,6,6,-6,-4,-2,4,2,-3,3,-3,3,-2,-1,-2,-1],[4,-4,-4,4,2,2,-2,-2,2,-2,2,-2,1,1,1,1]],f=t=&gt;{let e=[];for(let s=0;s&lt;16;++s){e[s]=0;for(let r=0;r&lt;16;++r)e[s]+=u[s][r]*t[r]}return e},p=(t,e,s)=&gt;{const r=e*e,n=s*s,o=e*e*e,i=s*s*s;return t[0]+t[1]*e+t[2]*r+t[3]*o+t[4]*s+t[5]*s*e+t[6]*s*r+t[7]*s*o+t[8]*n+t[9]*n*e+t[10]*n*r+t[11]*n*o+t[12]*i+t[13]*i*e+t[14]*i*r+t[15]*i*o},y=t=&gt;{let e=[],s=[],r=[];for(let s=0;s&lt;4;++s)e[s]=[],e[s][0]=n(t[0][s],t[1][s],t[2][s],t[3][s]),e[s][1]=[],e[s][1].push(...n(...e[s][0][0])),e[s][1].push(...n(...e[s][0][1])),e[s][2]=[],e[s][2].push(...n(...e[s][1][0])),e[s][2].push(...n(...e[s][1][1])),e[s][2].push(...n(...e[s][1][2])),e[s][2].push(...n(...e[s][1][3]));for(let t=0;t&lt;8;++t){s[t]=[];for(let r=0;r&lt;4;++r)s[t][r]=[],s[t][r][0]=n(e[0][2][t][r],e[1][2][t][r],e[2][2][t][r],e[3][2][t][r]),s[t][r][1]=[],s[t][r][1].push(...n(...s[t][r][0][0])),s[t][r][1].push(...n(...s[t][r][0][1])),s[t][r][2]=[],s[t][r][2].push(...n(...s[t][r][1][0])),s[t][r][2].push(...n(...s[t][r][1][1])),s[t][r][2].push(...n(...s[t][r][1][2])),s[t][r][2].push(...n(...s[t][r][1][3]))}for(let t=0;t&lt;8;++t){r[t]=[];for(let e=0;e&lt;8;++e)r[t][e]=[],r[t][e][0]=s[t][0][2][e],r[t][e][1]=s[t][1][2][e],r[t][e][2]=s[t][2][2][e],r[t][e][3]=s[t][3][2][e]}return r};class x{constructor(t,e){this.x=t||0,this.y=e||0}toString(){return`(x=${this.x}, y=${this.y})`}clone(){return new x(this.x,this.y)}add(t){return new x(this.x+t.x,this.y+t.y)}scale(t){return void 0===t.x?new x(this.x*t,this.y*t):new x(this.x*t.x,this.y*t.y)}distSquared(t){let e=this.x-t.x,s=this.y-t.y;return e*e+s*s}transform(t){let e=this.x*t.a+this.y*t.c+t.e,s=this.x*t.b+this.y*t.d+t.f;return new x(e,s)}}class g{constructor(t,e,s,r,n,o){void 0===t?(this.a=1,this.b=0,this.c=0,this.d=1,this.e=0,this.f=0):(this.a=t,this.b=e,this.c=s,this.d=r,this.e=n,this.f=o)}toString(){return`affine: ${this.a} ${this.c} ${this.e} \n       ${this.b} ${this.d} ${this.f}`}append(t){t instanceof g||console.error(&quot;mesh.js: argument to Affine.append is not affine!&quot;);let e=this.a*t.a+this.c*t.b,s=this.b*t.a+this.d*t.b,r=this.a*t.c+this.c*t.d,n=this.b*t.c+this.d*t.d,o=this.a*t.e+this.c*t.f+this.e,i=this.b*t.e+this.d*t.f+this.f;return new g(e,s,r,n,o,i)}}class w{constructor(t,e){this.nodes=t,this.colors=e}paintCurve(t,e){if(o(this.nodes)&gt;r){const s=n(...this.nodes);let r=[[],[]],o=[[],[]];for(let t=0;t&lt;4;++t)r[0][t]=this.colors[0][t],r[1][t]=(this.colors[0][t]+this.colors[1][t])/2,o[0][t]=r[1][t],o[1][t]=this.colors[1][t];let i=new w(s[0],r),a=new w(s[1],o);i.paintCurve(t,e),a.paintCurve(t,e)}else{let s=Math.round(this.nodes[0].x);if(s&gt;=0&amp;&amp;s&lt;e){let r=4*(~~this.nodes[0].y*e+s);t[r]=Math.round(this.colors[0][0]),t[r+1]=Math.round(this.colors[0][1]),t[r+2]=Math.round(this.colors[0][2]),t[r+3]=Math.round(this.colors[0][3])}}}}class m{constructor(t,e){this.nodes=t,this.colors=e}split(){let t=[[],[],[],[]],e=[[],[],[],[]],s=[[[],[]],[[],[]]],r=[[[],[]],[[],[]]];for(let s=0;s&lt;4;++s){const r=n(this.nodes[0][s],this.nodes[1][s],this.nodes[2][s],this.nodes[3][s]);t[0][s]=r[0][0],t[1][s]=r[0][1],t[2][s]=r[0][2],t[3][s]=r[0][3],e[0][s]=r[1][0],e[1][s]=r[1][1],e[2][s]=r[1][2],e[3][s]=r[1][3]}for(let t=0;t&lt;4;++t)s[0][0][t]=this.colors[0][0][t],s[0][1][t]=this.colors[0][1][t],s[1][0][t]=(this.colors[0][0][t]+this.colors[1][0][t])/2,s[1][1][t]=(this.colors[0][1][t]+this.colors[1][1][t])/2,r[0][0][t]=s[1][0][t],r[0][1][t]=s[1][1][t],r[1][0][t]=this.colors[1][0][t],r[1][1][t]=this.colors[1][1][t];return[new m(t,s),new m(e,r)]}paint(t,e){let s,n=!1;for(let t=0;t&lt;4;++t)if((s=o([this.nodes[0][t],this.nodes[1][t],this.nodes[2][t],this.nodes[3][t]]))&gt;r){n=!0;break}if(n){let s=this.split();s[0].paint(t,e),s[1].paint(t,e)}else{new w([...this.nodes[0]],[...this.colors[0]]).paintCurve(t,e)}}}class b{constructor(t){this.readMesh(t),this.type=t.getAttribute(&quot;type&quot;)||&quot;bilinear&quot;}readMesh(t){let e=[[]],s=[[]],r=Number(t.getAttribute(&quot;x&quot;)),n=Number(t.getAttribute(&quot;y&quot;));e[0][0]=new x(r,n);let o=t.children;for(let t=0,r=o.length;t&lt;r;++t){e[3*t+1]=[],e[3*t+2]=[],e[3*t+3]=[],s[t+1]=[];let r=o[t].children;for(let n=0,o=r.length;n&lt;o;++n){let o=r[n].children;for(let r=0,i=o.length;r&lt;i;++r){let i=r;0!==t&amp;&amp;++i;let h,d=o[r].getAttribute(&quot;path&quot;),c=&quot;l&quot;;null!=d&amp;&amp;(c=(h=d.match(/\s*([lLcC])\s*(.*)/))[1]);let u=l(h[2]);switch(c){case&quot;l&quot;:0===i?(e[3*t][3*n+3]=u[0].add(e[3*t][3*n]),e[3*t][3*n+1]=a(e[3*t][3*n],e[3*t][3*n+3]),e[3*t][3*n+2]=a(e[3*t][3*n+3],e[3*t][3*n])):1===i?(e[3*t+3][3*n+3]=u[0].add(e[3*t][3*n+3]),e[3*t+1][3*n+3]=a(e[3*t][3*n+3],e[3*t+3][3*n+3]),e[3*t+2][3*n+3]=a(e[3*t+3][3*n+3],e[3*t][3*n+3])):2===i?(0===n&amp;&amp;(e[3*t+3][3*n+0]=u[0].add(e[3*t+3][3*n+3])),e[3*t+3][3*n+1]=a(e[3*t+3][3*n],e[3*t+3][3*n+3]),e[3*t+3][3*n+2]=a(e[3*t+3][3*n+3],e[3*t+3][3*n])):(e[3*t+1][3*n]=a(e[3*t][3*n],e[3*t+3][3*n]),e[3*t+2][3*n]=a(e[3*t+3][3*n],e[3*t][3*n]));break;case&quot;L&quot;:0===i?(e[3*t][3*n+3]=u[0],e[3*t][3*n+1]=a(e[3*t][3*n],e[3*t][3*n+3]),e[3*t][3*n+2]=a(e[3*t][3*n+3],e[3*t][3*n])):1===i?(e[3*t+3][3*n+3]=u[0],e[3*t+1][3*n+3]=a(e[3*t][3*n+3],e[3*t+3][3*n+3]),e[3*t+2][3*n+3]=a(e[3*t+3][3*n+3],e[3*t][3*n+3])):2===i?(0===n&amp;&amp;(e[3*t+3][3*n+0]=u[0]),e[3*t+3][3*n+1]=a(e[3*t+3][3*n],e[3*t+3][3*n+3]),e[3*t+3][3*n+2]=a(e[3*t+3][3*n+3],e[3*t+3][3*n])):(e[3*t+1][3*n]=a(e[3*t][3*n],e[3*t+3][3*n]),e[3*t+2][3*n]=a(e[3*t+3][3*n],e[3*t][3*n]));break;case&quot;c&quot;:0===i?(e[3*t][3*n+1]=u[0].add(e[3*t][3*n]),e[3*t][3*n+2]=u[1].add(e[3*t][3*n]),e[3*t][3*n+3]=u[2].add(e[3*t][3*n])):1===i?(e[3*t+1][3*n+3]=u[0].add(e[3*t][3*n+3]),e[3*t+2][3*n+3]=u[1].add(e[3*t][3*n+3]),e[3*t+3][3*n+3]=u[2].add(e[3*t][3*n+3])):2===i?(e[3*t+3][3*n+2]=u[0].add(e[3*t+3][3*n+3]),e[3*t+3][3*n+1]=u[1].add(e[3*t+3][3*n+3]),0===n&amp;&amp;(e[3*t+3][3*n+0]=u[2].add(e[3*t+3][3*n+3]))):(e[3*t+2][3*n]=u[0].add(e[3*t+3][3*n]),e[3*t+1][3*n]=u[1].add(e[3*t+3][3*n]));break;case&quot;C&quot;:0===i?(e[3*t][3*n+1]=u[0],e[3*t][3*n+2]=u[1],e[3*t][3*n+3]=u[2]):1===i?(e[3*t+1][3*n+3]=u[0],e[3*t+2][3*n+3]=u[1],e[3*t+3][3*n+3]=u[2]):2===i?(e[3*t+3][3*n+2]=u[0],e[3*t+3][3*n+1]=u[1],0===n&amp;&amp;(e[3*t+3][3*n+0]=u[2])):(e[3*t+2][3*n]=u[0],e[3*t+1][3*n]=u[1]);break;default:console.error(&quot;mesh.js: &quot;+c+&quot; invalid path type.&quot;)}if(0===t&amp;&amp;0===n||r&gt;0){let e=window.getComputedStyle(o[r]).stopColor.match(/^rgb\s*\(\s*(\d+)\s*,\s*(\d+)\s*,\s*(\d+)\s*\)$/i),a=window.getComputedStyle(o[r]).stopOpacity,h=255;a&amp;&amp;(h=Math.floor(255*a)),e&amp;&amp;(0===i?(s[t][n]=[],s[t][n][0]=Math.floor(e[1]),s[t][n][1]=Math.floor(e[2]),s[t][n][2]=Math.floor(e[3]),s[t][n][3]=h):1===i?(s[t][n+1]=[],s[t][n+1][0]=Math.floor(e[1]),s[t][n+1][1]=Math.floor(e[2]),s[t][n+1][2]=Math.floor(e[3]),s[t][n+1][3]=h):2===i?(s[t+1][n+1]=[],s[t+1][n+1][0]=Math.floor(e[1]),s[t+1][n+1][1]=Math.floor(e[2]),s[t+1][n+1][2]=Math.floor(e[3]),s[t+1][n+1][3]=h):3===i&amp;&amp;(s[t+1][n]=[],s[t+1][n][0]=Math.floor(e[1]),s[t+1][n][1]=Math.floor(e[2]),s[t+1][n][2]=Math.floor(e[3]),s[t+1][n][3]=h))}}e[3*t+1][3*n+1]=new x,e[3*t+1][3*n+2]=new x,e[3*t+2][3*n+1]=new x,e[3*t+2][3*n+2]=new x,e[3*t+1][3*n+1].x=(-4*e[3*t][3*n].x+6*(e[3*t][3*n+1].x+e[3*t+1][3*n].x)+-2*(e[3*t][3*n+3].x+e[3*t+3][3*n].x)+3*(e[3*t+3][3*n+1].x+e[3*t+1][3*n+3].x)+-1*e[3*t+3][3*n+3].x)/9,e[3*t+1][3*n+2].x=(-4*e[3*t][3*n+3].x+6*(e[3*t][3*n+2].x+e[3*t+1][3*n+3].x)+-2*(e[3*t][3*n].x+e[3*t+3][3*n+3].x)+3*(e[3*t+3][3*n+2].x+e[3*t+1][3*n].x)+-1*e[3*t+3][3*n].x)/9,e[3*t+2][3*n+1].x=(-4*e[3*t+3][3*n].x+6*(e[3*t+3][3*n+1].x+e[3*t+2][3*n].x)+-2*(e[3*t+3][3*n+3].x+e[3*t][3*n].x)+3*(e[3*t][3*n+1].x+e[3*t+2][3*n+3].x)+-1*e[3*t][3*n+3].x)/9,e[3*t+2][3*n+2].x=(-4*e[3*t+3][3*n+3].x+6*(e[3*t+3][3*n+2].x+e[3*t+2][3*n+3].x)+-2*(e[3*t+3][3*n].x+e[3*t][3*n+3].x)+3*(e[3*t][3*n+2].x+e[3*t+2][3*n].x)+-1*e[3*t][3*n].x)/9,e[3*t+1][3*n+1].y=(-4*e[3*t][3*n].y+6*(e[3*t][3*n+1].y+e[3*t+1][3*n].y)+-2*(e[3*t][3*n+3].y+e[3*t+3][3*n].y)+3*(e[3*t+3][3*n+1].y+e[3*t+1][3*n+3].y)+-1*e[3*t+3][3*n+3].y)/9,e[3*t+1][3*n+2].y=(-4*e[3*t][3*n+3].y+6*(e[3*t][3*n+2].y+e[3*t+1][3*n+3].y)+-2*(e[3*t][3*n].y+e[3*t+3][3*n+3].y)+3*(e[3*t+3][3*n+2].y+e[3*t+1][3*n].y)+-1*e[3*t+3][3*n].y)/9,e[3*t+2][3*n+1].y=(-4*e[3*t+3][3*n].y+6*(e[3*t+3][3*n+1].y+e[3*t+2][3*n].y)+-2*(e[3*t+3][3*n+3].y+e[3*t][3*n].y)+3*(e[3*t][3*n+1].y+e[3*t+2][3*n+3].y)+-1*e[3*t][3*n+3].y)/9,e[3*t+2][3*n+2].y=(-4*e[3*t+3][3*n+3].y+6*(e[3*t+3][3*n+2].y+e[3*t+2][3*n+3].y)+-2*(e[3*t+3][3*n].y+e[3*t][3*n+3].y)+3*(e[3*t][3*n+2].y+e[3*t+2][3*n].y)+-1*e[3*t][3*n].y)/9}}this.nodes=e,this.colors=s}paintMesh(t,e){let s=(this.nodes.length-1)/3,r=(this.nodes[0].length-1)/3;if(&quot;bilinear&quot;===this.type||s&lt;2||r&lt;2){let n;for(let o=0;o&lt;s;++o)for(let s=0;s&lt;r;++s){let r=[];for(let t=3*o,e=3*o+4;t&lt;e;++t)r.push(this.nodes[t].slice(3*s,3*s+4));let i=[];i.push(this.colors[o].slice(s,s+2)),i.push(this.colors[o+1].slice(s,s+2)),(n=new m(r,i)).paint(t,e)}}else{let n,o,a,h,l,d,u;const x=s,g=r;s++,r++;let w=new Array(s);for(let t=0;t&lt;s;++t){w[t]=new Array(r);for(let e=0;e&lt;r;++e)w[t][e]=[],w[t][e][0]=this.nodes[3*t][3*e],w[t][e][1]=this.colors[t][e]}for(let t=0;t&lt;s;++t)for(let e=0;e&lt;r;++e)0!==t&amp;&amp;t!==x&amp;&amp;(n=i(w[t-1][e][0],w[t][e][0]),o=i(w[t+1][e][0],w[t][e][0]),w[t][e][2]=c(w[t-1][e][1],w[t][e][1],w[t+1][e][1],n,o)),0!==e&amp;&amp;e!==g&amp;&amp;(n=i(w[t][e-1][0],w[t][e][0]),o=i(w[t][e+1][0],w[t][e][0]),w[t][e][3]=c(w[t][e-1][1],w[t][e][1],w[t][e+1][1],n,o));for(let t=0;t&lt;r;++t){w[0][t][2]=[],w[x][t][2]=[];for(let e=0;e&lt;4;++e)n=i(w[1][t][0],w[0][t][0]),o=i(w[x][t][0],w[x-1][t][0]),w[0][t][2][e]=n&gt;0?2*(w[1][t][1][e]-w[0][t][1][e])/n-w[1][t][2][e]:0,w[x][t][2][e]=o&gt;0?2*(w[x][t][1][e]-w[x-1][t][1][e])/o-w[x-1][t][2][e]:0}for(let t=0;t&lt;s;++t){w[t][0][3]=[],w[t][g][3]=[];for(let e=0;e&lt;4;++e)n=i(w[t][1][0],w[t][0][0]),o=i(w[t][g][0],w[t][g-1][0]),w[t][0][3][e]=n&gt;0?2*(w[t][1][1][e]-w[t][0][1][e])/n-w[t][1][3][e]:0,w[t][g][3][e]=o&gt;0?2*(w[t][g][1][e]-w[t][g-1][1][e])/o-w[t][g-1][3][e]:0}for(let s=0;s&lt;x;++s)for(let r=0;r&lt;g;++r){let n=i(w[s][r][0],w[s+1][r][0]),o=i(w[s][r+1][0],w[s+1][r+1][0]),c=i(w[s][r][0],w[s][r+1][0]),x=i(w[s+1][r][0],w[s+1][r+1][0]),g=[[],[],[],[]];for(let t=0;t&lt;4;++t){(d=[])[0]=w[s][r][1][t],d[1]=w[s+1][r][1][t],d[2]=w[s][r+1][1][t],d[3]=w[s+1][r+1][1][t],d[4]=w[s][r][2][t]*n,d[5]=w[s+1][r][2][t]*n,d[6]=w[s][r+1][2][t]*o,d[7]=w[s+1][r+1][2][t]*o,d[8]=w[s][r][3][t]*c,d[9]=w[s+1][r][3][t]*x,d[10]=w[s][r+1][3][t]*c,d[11]=w[s+1][r+1][3][t]*x,d[12]=0,d[13]=0,d[14]=0,d[15]=0,u=f(d);for(let e=0;e&lt;9;++e){g[t][e]=[];for(let s=0;s&lt;9;++s)g[t][e][s]=p(u,e/8,s/8),g[t][e][s]&gt;255?g[t][e][s]=255:g[t][e][s]&lt;0&amp;&amp;(g[t][e][s]=0)}}h=[];for(let t=3*s,e=3*s+4;t&lt;e;++t)h.push(this.nodes[t].slice(3*r,3*r+4));l=y(h);for(let s=0;s&lt;8;++s)for(let r=0;r&lt;8;++r)(a=new m(l[s][r],[[[g[0][s][r],g[1][s][r],g[2][s][r],g[3][s][r]],[g[0][s][r+1],g[1][s][r+1],g[2][s][r+1],g[3][s][r+1]]],[[g[0][s+1][r],g[1][s+1][r],g[2][s+1][r],g[3][s+1][r]],[g[0][s+1][r+1],g[1][s+1][r+1],g[2][s+1][r+1],g[3][s+1][r+1]]]])).paint(t,e)}}}transform(t){if(t instanceof x)for(let e=0,s=this.nodes.length;e&lt;s;++e)for(let s=0,r=this.nodes[0].length;s&lt;r;++s)this.nodes[e][s]=this.nodes[e][s].add(t);else if(t instanceof g)for(let e=0,s=this.nodes.length;e&lt;s;++e)for(let s=0,r=this.nodes[0].length;s&lt;r;++s)this.nodes[e][s]=this.nodes[e][s].transform(t)}scale(t){for(let e=0,s=this.nodes.length;e&lt;s;++e)for(let s=0,r=this.nodes[0].length;s&lt;r;++s)this.nodes[e][s]=this.nodes[e][s].scale(t)}}document.querySelectorAll(&quot;rect,circle,ellipse,path,text&quot;).forEach((r,n)=&gt;{let o=r.getAttribute(&quot;id&quot;);o||(o=&quot;patchjs_shape&quot;+n,r.setAttribute(&quot;id&quot;,o));const i=r.style.fill.match(/^url\(\s*&quot;?\s*#([^\s&quot;]+)&quot;?\s*\)/),a=r.style.stroke.match(/^url\(\s*&quot;?\s*#([^\s&quot;]+)&quot;?\s*\)/);if(i&amp;&amp;i[1]){const a=document.getElementById(i[1]);if(a&amp;&amp;&quot;meshgradient&quot;===a.nodeName){const i=r.getBBox();let l=document.createElementNS(s,&quot;canvas&quot;);d(l,{width:i.width,height:i.height});const c=l.getContext(&quot;2d&quot;);let u=c.createImageData(i.width,i.height);const f=new b(a);&quot;objectBoundingBox&quot;===a.getAttribute(&quot;gradientUnits&quot;)&amp;&amp;f.scale(new x(i.width,i.height));const p=a.getAttribute(&quot;gradientTransform&quot;);null!=p&amp;&amp;f.transform(h(p)),&quot;userSpaceOnUse&quot;===a.getAttribute(&quot;gradientUnits&quot;)&amp;&amp;f.transform(new x(-i.x,-i.y)),f.paintMesh(u.data,l.width),c.putImageData(u,0,0);const y=document.createElementNS(t,&quot;image&quot;);d(y,{width:i.width,height:i.height,x:i.x,y:i.y});let g=l.toDataURL();y.setAttributeNS(e,&quot;xlink:href&quot;,g),r.parentNode.insertBefore(y,r),r.style.fill=&quot;none&quot;;const w=document.createElementNS(t,&quot;use&quot;);w.setAttributeNS(e,&quot;xlink:href&quot;,&quot;#&quot;+o);const m=&quot;patchjs_clip&quot;+n,M=document.createElementNS(t,&quot;clipPath&quot;);M.setAttribute(&quot;id&quot;,m),M.appendChild(w),r.parentElement.insertBefore(M,r),y.setAttribute(&quot;clip-path&quot;,&quot;url(#&quot;+m+&quot;)&quot;),u=null,l=null,g=null}}if(a&amp;&amp;a[1]){const o=document.getElementById(a[1]);if(o&amp;&amp;&quot;meshgradient&quot;===o.nodeName){const i=parseFloat(r.style.strokeWidth.slice(0,-2))*(parseFloat(r.style.strokeMiterlimit)||parseFloat(r.getAttribute(&quot;stroke-miterlimit&quot;))||1),a=r.getBBox(),l=Math.trunc(a.width+i),c=Math.trunc(a.height+i),u=Math.trunc(a.x-i/2),f=Math.trunc(a.y-i/2);let p=document.createElementNS(s,&quot;canvas&quot;);d(p,{width:l,height:c});const y=p.getContext(&quot;2d&quot;);let g=y.createImageData(l,c);const w=new b(o);&quot;objectBoundingBox&quot;===o.getAttribute(&quot;gradientUnits&quot;)&amp;&amp;w.scale(new x(l,c));const m=o.getAttribute(&quot;gradientTransform&quot;);null!=m&amp;&amp;w.transform(h(m)),&quot;userSpaceOnUse&quot;===o.getAttribute(&quot;gradientUnits&quot;)&amp;&amp;w.transform(new x(-u,-f)),w.paintMesh(g.data,p.width),y.putImageData(g,0,0);const M=document.createElementNS(t,&quot;image&quot;);d(M,{width:l,height:c,x:0,y:0});let S=p.toDataURL();M.setAttributeNS(e,&quot;xlink:href&quot;,S);const k=&quot;pattern_clip&quot;+n,A=document.createElementNS(t,&quot;pattern&quot;);d(A,{id:k,patternUnits:&quot;userSpaceOnUse&quot;,width:l,height:c,x:u,y:f}),A.appendChild(M),o.parentNode.appendChild(A),r.style.stroke=&quot;url(#&quot;+k+&quot;)&quot;,g=null,p=null,S=null}}})}();
</script>
</svg>
